# xmcd
#
# Track frame offsets: 
#        150
#        26316
#        56136
#        77778
#        102192
#        135443
#        161489
#        188234
#
# Disc length: 2726 seconds
#
# Revision: 1
# Processed by: cddbd v1.5.2PL0 Copyright (c) Steve Scherf et al.
# Submitted via: ExactAudioCopyFreeDBPlugin 1.0
#
DISCID=5d0aa408
DTITLE=The Dramatics - 10½
DYEAR=1980
DGENRE=Soul
TTITLE0=Music Is The Peoples Choice
TTITLE1=Welcome Back Home
TTITLE2=Runnin' From My Love
TTITLE3=Love Is Here
TTITLE4=I Just Wanna Dance The Night Away
TTITLE5=If You Feel Like You Wanna Dance, Dance
TTITLE6=It Ain't Rainin' (On Nobody's House But Mine)
TTITLE7=Be With The One You Love
EXTD=
EXTT0=
EXTT1=
EXTT2=
EXTT3=
EXTT4=
EXTT5=
EXTT6=
EXTT7=
PLAYORDER=
